<svg id="Layer_1" data-name="Layer 1" xmlns="http://www.w3.org/2000/svg" viewBox="0 0 144.79 28.21"><defs><style>.cls-1,.cls-2{fill:#fefefe;}.cls-1{stroke:#fefefe;stroke-miterlimit:10;stroke-width:0.28px;}</style></defs><title>logo-white_crop</title><g id="Слой_1"><path class="cls-1" d="M109.67,25.34c-1.13,0-1.69-.19-1.69-.57a1.47,1.47,0,0,1,.18-.55,2.63,2.63,0,0,1,.4-.59,3,3,0,0,1,1-.85,7.19,7.19,0,0,1,1.63-.44,12,12,0,0,1,1.91-.19c.78,0,1.17.23,1.17.68a2.74,2.74,0,0,1-.73,1.57,1.23,1.23,0,0,1-.44.39,3.11,3.11,0,0,1-.84.24,14.09,14.09,0,0,1-2.62.31Z" transform="translate(-0.98 -1.61)"/><path class="cls-2" d="M121.44,24.26l-.16,0a3.48,3.48,0,0,1-.85.16c-.21,0-.32,0-.32-.16a1.25,1.25,0,0,1,.13-.3,2.42,2.42,0,0,0,.46-1.32,1.71,1.71,0,0,0-.12-.65c-.08-.19-.17-.29-.27-.29s-.23.09-.41.28a7.73,7.73,0,0,0-1.21,1.7,3.57,3.57,0,0,0-.44,1.55,1.44,1.44,0,0,0,.18.75.55.55,0,0,0,.47.29,2.07,2.07,0,0,0,.88-.51,12.78,12.78,0,0,0,1.47-1.34l.22-.18,0,0ZM121,26.14v0l0,0a16.88,16.88,0,0,1-1.4,1.46,6,6,0,0,1-1.18.86,2.07,2.07,0,0,1-1,.28,2,2,0,0,1-1.52-.62,2.1,2.1,0,0,1-.6-1.55,4.21,4.21,0,0,1,.29-1.38,7.31,7.31,0,0,1,.82-1.56,7.9,7.9,0,0,1,2.16-2.11,4.67,4.67,0,0,1,2.59-.89,3.24,3.24,0,0,1,1.73.42,1.28,1.28,0,0,1,.68,1.09,2,2,0,0,1-.34,1,1,1,0,0,1,.56.1.61.61,0,0,1,.11.44s0,.09,0,.33c0,.54,0,1,0,1.52,0,.25,0,.44,0,.56a3.75,3.75,0,0,0,0,.44,2.9,2.9,0,0,0,0,.39,3.44,3.44,0,0,0,.21.76,3.68,3.68,0,0,1-.94.71,2.05,2.05,0,0,1-.92.23c-.85,0-1.27-.71-1.27-2.12a3.47,3.47,0,0,1,0-.38Z" transform="translate(-0.98 -1.61)"/><path class="cls-2" d="M127.43,26a2.7,2.7,0,0,0,.57-.51,3.88,3.88,0,0,0,.68-1.23,5.58,5.58,0,0,0,.29-1,5.67,5.67,0,0,0,.11-1c0-.3-.06-.45-.19-.45s-.44.38-.8,1.16a9.81,9.81,0,0,0-.52,1.39,4.27,4.27,0,0,0-.2,1.2,3,3,0,0,0,.06.5Zm0,.26a.56.56,0,0,0,.64.49,3,3,0,0,0,1.6-.72,1.88,1.88,0,0,1,.77-.42.87.87,0,0,1,.46.13q.21.14.21.27a.66.66,0,0,1-.24.39,8.71,8.71,0,0,1-1,.85,10.75,10.75,0,0,1-1.09.69,5.81,5.81,0,0,1-1.05.43,3.13,3.13,0,0,1-.93.16,2.23,2.23,0,0,1-1.64-.59,2.06,2.06,0,0,1-.62-1.56,5.18,5.18,0,0,1,.33-1.69,7.22,7.22,0,0,1,.87-1.76,5.94,5.94,0,0,1,1.59-1.61,4.1,4.1,0,0,1,2.23-.77,1.52,1.52,0,0,1,1.21.49,1.91,1.91,0,0,1,.44,1.35,3.07,3.07,0,0,1-.35,1.38,4.68,4.68,0,0,1-1,1.39,4.83,4.83,0,0,1-1.09.87,1.94,1.94,0,0,1-.94.32.84.84,0,0,1-.37-.09Z" transform="translate(-0.98 -1.61)"/><path class="cls-1" d="M134.55,26a5.51,5.51,0,0,0-.06.57c0,.27-.06.48-.09.66a1.33,1.33,0,0,1-.18.42,1.9,1.9,0,0,1-.31.35,1.76,1.76,0,0,1-1.2.55.81.81,0,0,1-.73-.36,2.27,2.27,0,0,1-.23-1.16,11.42,11.42,0,0,1,.14-1.58,15.12,15.12,0,0,1,.35-1.69c0-.14.07-.28.12-.42a2.33,2.33,0,0,1,.07-.25,10.37,10.37,0,0,1,.48-1.4,2.72,2.72,0,0,1,.62-.86,1.12,1.12,0,0,1,.72-.26c.39,0,.63.24.71.71a2.44,2.44,0,0,0,.22-.23,2.23,2.23,0,0,1,.37-.38.45.45,0,0,1,.3-.1c.47,0,.7.47.7,1.4a6.49,6.49,0,0,1-.16,1.47,4.78,4.78,0,0,1-.41,1.17c-.17.3-.34.45-.5.45s-.27-.34-.27-1a4.73,4.73,0,0,0-.06-.85,1.21,1.21,0,0,0-.19-.47,5.87,5.87,0,0,0-.32,2.1c0,.63-.07,1-.09,1.19Z" transform="translate(-0.98 -1.61)"/><path class="cls-1" d="M142.69,20.27c.82,0,1.22.1,1.22.29s-.18.33-.55.35a2.89,2.89,0,0,0-1.24.38,3.53,3.53,0,0,0-1,.92,4.63,4.63,0,0,0-.7,1.32,4.87,4.87,0,0,0-.25,1.54,2.28,2.28,0,0,0,.42,1.44,1.31,1.31,0,0,0,1.09.55,1.35,1.35,0,0,0,1.1-.64,2.5,2.5,0,0,0,.47-1.5,2.93,2.93,0,0,0-.3-1.31,2.63,2.63,0,0,0-.84-1c-.16-.13-.24-.22-.24-.28s.11-.19.33-.35a4.51,4.51,0,0,1,.85-.43,2.45,2.45,0,0,1,.79-.17,1.37,1.37,0,0,1,.7.19,2,2,0,0,1,.58.55,2.76,2.76,0,0,1,.39.83,3.43,3.43,0,0,1,.14,1,4.73,4.73,0,0,1-.33,1.72,3.92,3.92,0,0,1-.86,1.38,5.69,5.69,0,0,1-1.66,1.09,4.69,4.69,0,0,1-1.85.42,5.33,5.33,0,0,1-1.7-.29,3.63,3.63,0,0,1-1.33-.78,2.52,2.52,0,0,1-.66-1.87,4.3,4.3,0,0,1,.47-1.9A6.09,6.09,0,0,1,139,22a6.36,6.36,0,0,1,1.76-1.23,4.62,4.62,0,0,1,1.95-.45Z" transform="translate(-0.98 -1.61)"/><path class="cls-1" d="M105.85,16.23l.23-.43a3.73,3.73,0,0,1,.59-1,.84.84,0,0,1,.63-.24c.79,0,1.18.88,1.18,2.64a6.43,6.43,0,0,1-.12,1.33,3.8,3.8,0,0,1-.38,1.07,16.27,16.27,0,0,1-.89,1.57c-.37.58-.8,1.2-1.26,1.85s-1,1.31-1.51,2a18.81,18.81,0,0,1-2.42,2.65,2.79,2.79,0,0,1-1.65.85c-.83,0-1.42-.5-1.78-1.51a17.07,17.07,0,0,1-.67-2.32c-.21-.9-.36-1.82-.48-2.74a23,23,0,0,1-.17-2.69,12.06,12.06,0,0,1,.32-3,2.75,2.75,0,0,1,.88-1.61,2.08,2.08,0,0,1,1.05-.29,3.63,3.63,0,0,1,1.24.21,2.1,2.1,0,0,1,.9.6,1.91,1.91,0,0,1,.45.79,6.52,6.52,0,0,1,.2,1.5c0,.67,0,1.6,0,2.77v3.7h.06c.18-.41.33-.72.44-.94.31-.6.9-1.87,1.77-3.8l1-2.28.31-.62Z" transform="translate(-0.98 -1.61)"/><path class="cls-1" d="M90.91,10.48c1.42,0,2.13.17,2.13.5s-.32.59-1,.62a4.85,4.85,0,0,0-2.16.65,6.28,6.28,0,0,0-1.78,1.61,8,8,0,0,0-1.22,2.29,8.3,8.3,0,0,0-.43,2.7,4,4,0,0,0,.73,2.51,2.3,2.3,0,0,0,1.9.95A2.34,2.34,0,0,0,91,21.19a4.31,4.31,0,0,0,.81-2.61,5.42,5.42,0,0,0-.5-2.29,4.84,4.84,0,0,0-1.48-1.8c-.28-.22-.42-.37-.42-.47s.2-.34.59-.61a6.77,6.77,0,0,1,1.47-.75,4.1,4.1,0,0,1,1.37-.3,2.4,2.4,0,0,1,1.22.33,3.37,3.37,0,0,1,1,1,5.12,5.12,0,0,1,.68,1.43A6.4,6.4,0,0,1,96,16.82a8.31,8.31,0,0,1-.57,3,6.65,6.65,0,0,1-1.5,2.4,9.72,9.72,0,0,1-2.9,1.9,8.06,8.06,0,0,1-3.22.74,8.7,8.7,0,0,1-3-.52A6.24,6.24,0,0,1,82.56,23a4.41,4.41,0,0,1-1.14-3.25,7.56,7.56,0,0,1,.82-3.32,10.68,10.68,0,0,1,2.21-3,11,11,0,0,1,3.07-2.14,8,8,0,0,1,3.39-.78Z" transform="translate(-0.98 -1.61)"/><path class="cls-1" d="M75.73,15.16l.15-.58c.29-1.3.56-2.36.8-3.17a15.11,15.11,0,0,1,.73-2,4.55,4.55,0,0,1,.75-1.21,2.89,2.89,0,0,1,2.16-.65,5,5,0,0,1,1,.08,1.13,1.13,0,0,1,.54.25c-.46,1.42-.78,2.49-.95,3.2s-.38,1.68-.59,2.92a35.36,35.36,0,0,0-.48,5.48,21.84,21.84,0,0,0,.26,3.35A31.73,31.73,0,0,0,81,26.65a12.07,12.07,0,0,1-1.46.9,7.83,7.83,0,0,1-1.31.59,3.47,3.47,0,0,1-1.1.21A1.19,1.19,0,0,1,76,27.54a6.6,6.6,0,0,1-.37-1.08c-.06-.27-.16-1-.3-2.26a22,22,0,0,1-3.67,3.15,5.62,5.62,0,0,1-2.79,1.15,2.37,2.37,0,0,1-2-1A3.91,3.91,0,0,1,66.1,25a9.56,9.56,0,0,1,.59-3.08,15.47,15.47,0,0,1,1.64-3.28,10.63,10.63,0,0,1,1.41-1.76,10.31,10.31,0,0,1,1.63-1.34,5.41,5.41,0,0,1,2.78-1.09,3.31,3.31,0,0,1,1.58.71Zm-.44,6.78v-.82a2.13,2.13,0,0,1-1.09.65.18.18,0,0,1-.2-.2,1.47,1.47,0,0,1,.09-.36,5,5,0,0,0,.29-1.66,6.52,6.52,0,0,0-.49-2.41c-.15-.43-.32-.64-.53-.64a.31.31,0,0,0-.26.14,6.45,6.45,0,0,0-.9,1.54,14,14,0,0,0-.7,2.16,8.84,8.84,0,0,0-.28,2.07c0,1.13.34,1.7,1,1.7a2.69,2.69,0,0,0,1.38-.61,8.89,8.89,0,0,0,1.66-1.56Z" transform="translate(-0.98 -1.61)"/><path class="cls-1" d="M63,11.19c-.9,0-1.34-.56-1.34-1.61a5.38,5.38,0,0,1,.39-1.83A4.4,4.4,0,0,1,63,6.22a1.77,1.77,0,0,1,.52-.39,1.86,1.86,0,0,1,.68-.11,1.39,1.39,0,0,1,1,.35,1.61,1.61,0,0,1,.34,1.16,5.41,5.41,0,0,1-.35,1.93,4,4,0,0,1-.93,1.47,1.76,1.76,0,0,1-1.2.56Z" transform="translate(-0.98 -1.61)"/><path class="cls-1" d="M60.64,25.76a1.78,1.78,0,0,1-1.17-.58,3.5,3.5,0,0,1-.75-1.24,5.85,5.85,0,0,1-.22-1.72,18.88,18.88,0,0,1,.88-5.33,12.45,12.45,0,0,1,2-4.3A1.47,1.47,0,0,1,62.6,12a1.54,1.54,0,0,1,1.33.75,3.6,3.6,0,0,1,.5,2A20.46,20.46,0,0,1,63.91,19a37.82,37.82,0,0,1-1.46,5.07,2.76,2.76,0,0,1-.91,1.43,1.55,1.55,0,0,1-.87.23Z" transform="translate(-0.98 -1.61)"/><path class="cls-1" d="M49.75,21.12l.86-1c.86-1,1.55-1.68,2.06-2.15a6.52,6.52,0,0,1,1.38-1,2.61,2.61,0,0,1,1.23-.31,1.72,1.72,0,0,1,1.44.54,3.28,3.28,0,0,1,.41,1.89A16.19,16.19,0,0,1,57,20.7a24,24,0,0,0-.17,2.72A15.81,15.81,0,0,0,57,25.73a7.37,7.37,0,0,0,.3,1.09,2.92,2.92,0,0,1,.14.7.41.41,0,0,1-.17.36,4,4,0,0,1-1.17.67,3.57,3.57,0,0,1-1.23.29,2.26,2.26,0,0,1-1.48-.56,3.54,3.54,0,0,1-1-1.55A6.25,6.25,0,0,1,52,24.5a13.91,13.91,0,0,1,.17-2l-.06-.06c-.4.46-.73.82-1,1.09l-.71.76c-1.06,1.22-2,2.32-2.71,3.3-.29.38-.54.71-.78,1a1.69,1.69,0,0,1-1.2.53,1.84,1.84,0,0,1-1.49-.69,2.65,2.65,0,0,1-.57-1.77,10.91,10.91,0,0,1,.15-1.64c.11-.65.25-1.35.43-2.08s.38-1.5.63-2.29.5-1.52.79-2.23a8,8,0,0,1,1.61-2.74,2.13,2.13,0,0,1,1.57-.64c1,0,1.49.64,1.49,1.93a19.11,19.11,0,0,1-.61,4l0,.06Z" transform="translate(-0.98 -1.61)"/><path class="cls-1" d="M37.71,11.41c1.42,0,2.14.17,2.14.5s-.33.59-1,.62a4.86,4.86,0,0,0-2.16.66,6.1,6.1,0,0,0-1.78,1.6,8.24,8.24,0,0,0-1.22,2.29,8.58,8.58,0,0,0-.43,2.7A4,4,0,0,0,34,22.29a2.3,2.3,0,0,0,1.9.95,2.34,2.34,0,0,0,1.91-1.12,4.32,4.32,0,0,0,.82-2.61,5.43,5.43,0,0,0-.51-2.29,4.84,4.84,0,0,0-1.48-1.8c-.28-.22-.41-.37-.41-.47s.19-.34.58-.61a6.77,6.77,0,0,1,1.47-.75,4.15,4.15,0,0,1,1.37-.3,2.4,2.4,0,0,1,1.22.33,3.37,3.37,0,0,1,1,1A4.85,4.85,0,0,1,42.6,16a6.4,6.4,0,0,1,.23,1.73,8.31,8.31,0,0,1-.57,3,6.65,6.65,0,0,1-1.5,2.4,9.72,9.72,0,0,1-2.9,1.9,8.06,8.06,0,0,1-3.22.74,8.7,8.7,0,0,1-2.95-.52,6.12,6.12,0,0,1-2.32-1.36,4.41,4.41,0,0,1-1.15-3.25A7.56,7.56,0,0,1,29,17.34a10.68,10.68,0,0,1,2.21-3,11.18,11.18,0,0,1,3.07-2.14,8,8,0,0,1,3.39-.78Z" transform="translate(-0.98 -1.61)"/><path class="cls-1" d="M19.54,25.71a1,1,0,0,0,1.12.86,5.28,5.28,0,0,0,2.79-1.26,3.32,3.32,0,0,1,1.34-.73,1.54,1.54,0,0,1,.8.23c.25.15.37.31.37.47a1.15,1.15,0,0,1-.41.68,16.75,16.75,0,0,1-1.75,1.48,14.77,14.77,0,0,1-1.9,1.2,10.92,10.92,0,0,1-1.83.76,5.87,5.87,0,0,1-1.63.28,4,4,0,0,1-2.85-1,3.58,3.58,0,0,1-1.08-2.73A9.37,9.37,0,0,1,15.08,23a13.51,13.51,0,0,1,1.52-3.07,10.22,10.22,0,0,1,2.77-2.79,7.08,7.08,0,0,1,3.89-1.35,2.65,2.65,0,0,1,2.11.86A3.35,3.35,0,0,1,26.14,19a5.51,5.51,0,0,1-.61,2.42,8.55,8.55,0,0,1-1.79,2.42,9.46,9.46,0,0,1-1.91,1.51,3.34,3.34,0,0,1-1.64.55,1.45,1.45,0,0,1-.65-.16Zm0-.45a4.75,4.75,0,0,0,1-.89,7.27,7.27,0,0,0,1.17-2.14,8.76,8.76,0,0,0,.51-1.77,9.31,9.31,0,0,0,.19-1.82c0-.53-.11-.79-.33-.79s-.77.67-1.4,2a19.58,19.58,0,0,0-.91,2.43,7.89,7.89,0,0,0-.35,2.09,4.49,4.49,0,0,0,.12.87Z" transform="translate(-0.98 -1.61)"/><path class="cls-1" d="M11.21,10.69l-.56,1.39c-.74,1.78-1.44,3.56-2.08,5.33-.32.85-.78,2.35-1.42,4.48,1-.09,2.25-.29,3.87-.61A15.57,15.57,0,0,1,12.91,21c.41,0,.61.16.61.49a3.45,3.45,0,0,1-.67,1.61,9.06,9.06,0,0,1-1.5,1.78,3.49,3.49,0,0,1-1.7.75,22.57,22.57,0,0,1-3.52.2c-1.49,0-2.64-.05-3.44-.13l-.58-.18a1.68,1.68,0,0,1-1-1.74,20.6,20.6,0,0,1,.55-3.48q.54-2.53,1.58-6.3C4.83,8.37,6,4.9,6.81,3.59a2.94,2.94,0,0,1,1-1A4.72,4.72,0,0,1,9.34,2a10.47,10.47,0,0,1,2.22-.21,3.32,3.32,0,0,1,1.66.3,1.13,1.13,0,0,1,.47,1.05,10.62,10.62,0,0,1-.62,2.66q-.62,1.95-1.86,4.93Z" transform="translate(-0.98 -1.61)"/><path class="cls-1" d="M113.65,22.87a2,2,0,0,0-.52-.06,10.75,10.75,0,0,0-1.79.18,7,7,0,0,0-1.49.39,2.73,2.73,0,0,0-.8.68,2,2,0,0,0-.3.45l0,.1a5.23,5.23,0,0,0,1,.08,14,14,0,0,0,2.5-.3,3.79,3.79,0,0,0,.66-.18A.77.77,0,0,0,113,24v0h0A2.75,2.75,0,0,0,113.65,22.87Z" transform="translate(-0.98 -1.61)"/><path class="cls-1" d="M134,21.35a2.15,2.15,0,0,0-.44.64A8.36,8.36,0,0,0,133,23.4c-.06.19-.1.37-.16.56a14.82,14.82,0,0,0-.33,1.61,10.44,10.44,0,0,0-.14,1.48,2.06,2.06,0,0,0,.13.81c0,.06.11.06.18.06a1.17,1.17,0,0,0,.75-.37,1.38,1.38,0,0,0,.22-.26.54.54,0,0,0,.08-.19,3.55,3.55,0,0,0,.07-.57h0v0a4,4,0,0,1,.07-.58c0-.37.05-.75.07-1.13a6.8,6.8,0,0,1,.4-2.38l.08-.14-.15-.86a.47.47,0,0,0,0-.16h0a.47.47,0,0,0-.3.1Z" transform="translate(-0.98 -1.61)"/><path class="cls-1" d="M135.2,22l.28.37a1.84,1.84,0,0,1,.31.75v0A6,6,0,0,0,135.9,22a2.83,2.83,0,0,0-.07-.67.94.94,0,0,0-.14.16,3.14,3.14,0,0,1-.31.32l-.18.16Z" transform="translate(-0.98 -1.61)"/><path class="cls-1" d="M142.81,22.33a3.4,3.4,0,0,1,.72,1,3.8,3.8,0,0,1,.35,1.59,3.19,3.19,0,0,1-.59,1.89,2.44,2.44,0,0,1-.73.67,4.81,4.81,0,0,0,1.42-.94,3.26,3.26,0,0,0,.71-1.15,4.14,4.14,0,0,0,.28-1.48,3.15,3.15,0,0,0-.1-.81,2.15,2.15,0,0,0-.3-.63,1.31,1.31,0,0,0-.38-.36.72.72,0,0,0-.37-.11,1.77,1.77,0,0,0-.56.14,3.57,3.57,0,0,0-.45.19Z" transform="translate(-0.98 -1.61)"/><path class="cls-1" d="M142.06,27.67a1.75,1.75,0,0,1-.4,0,2,2,0,0,1-1.61-.81,2.94,2.94,0,0,1-.55-1.84,5.43,5.43,0,0,1,.28-1.75,5.34,5.34,0,0,1,.8-1.51,5.12,5.12,0,0,1,.44-.49,5.41,5.41,0,0,0-1.58,1.1A5.55,5.55,0,0,0,138.3,24a3.66,3.66,0,0,0-.4,1.62,1.91,1.91,0,0,0,.46,1.4,3.05,3.05,0,0,0,1.09.63,4.65,4.65,0,0,0,1.48.26,3.68,3.68,0,0,0,1.13-.2Z" transform="translate(-0.98 -1.61)"/><path class="cls-1" d="M106.43,16.53l-.29.6c-.35.76-.69,1.52-1,2.27-.58,1.28-1.15,2.58-1.78,3.83h0c-.15.29-.29.6-.42.9-.06.13-.12.25-.17.38-.43.81-1.11.85-1.14,0V20.17c0-.91,0-1.83,0-2.74a6.09,6.09,0,0,0-.18-1.34,1.2,1.2,0,0,0-.28-.52l0,0,0,0a1.5,1.5,0,0,0-.63-.41,3.1,3.1,0,0,0-1-.16,1.43,1.43,0,0,0-.7.18,2.68,2.68,0,0,0-.6,1.23,11.57,11.57,0,0,0-.3,2.87A20.79,20.79,0,0,0,98,21.85a24.64,24.64,0,0,0,.47,2.68,15.67,15.67,0,0,0,.65,2.22h0c.2.56.5,1.07,1.16,1.07a2.68,2.68,0,0,0,1.23-.68,19.59,19.59,0,0,0,2.33-2.57c.5-.64,1-1.28,1.49-1.94s.84-1.2,1.24-1.82.6-1,.85-1.5v0h0a3.16,3.16,0,0,0,.32-.89,6.08,6.08,0,0,0,.1-1.2c0-.27,0-2-.52-2a.24.24,0,0,0-.16,0,3.81,3.81,0,0,0-.47.81h0l-.23.44Z" transform="translate(-0.98 -1.61)"/><path class="cls-1" d="M90.87,11.14a7.43,7.43,0,0,0-3.07.72,10.54,10.54,0,0,0-2.9,2,10,10,0,0,0-2.07,2.83,6.82,6.82,0,0,0-.75,3,3.82,3.82,0,0,0,1,2.79,5.52,5.52,0,0,0,2.07,1.2,8.27,8.27,0,0,0,2.74.48,7.4,7.4,0,0,0,3-.68,9.15,9.15,0,0,0,2.7-1.77,6.11,6.11,0,0,0,1.35-2.17,7.68,7.68,0,0,0,.52-2.76,5.78,5.78,0,0,0-.2-1.55A4,4,0,0,0,94.58,14a2.65,2.65,0,0,0-.82-.78,1.73,1.73,0,0,0-.89-.25,3.51,3.51,0,0,0-1.14.27A5.54,5.54,0,0,0,90.4,14l-.09.06a5.62,5.62,0,0,1,1.62,2,6,6,0,0,1,.57,2.57,5,5,0,0,1-.94,3A3,3,0,0,1,89.12,23a3,3,0,0,1-2.42-1.2,4.67,4.67,0,0,1-.87-2.91,9,9,0,0,1,.47-2.91,8.58,8.58,0,0,1,1.32-2.48,6.93,6.93,0,0,1,2-1.77,5.75,5.75,0,0,1,1.28-.55Z" transform="translate(-0.98 -1.61)"/><path class="cls-1" d="M80.24,26.37a31.73,31.73,0,0,1-.76-3.48,22.19,22.19,0,0,1-.28-3.45,33.77,33.77,0,0,1,.5-5.59c.16-1,.35-2,.59-3s.5-1.79.78-2.68a6.35,6.35,0,0,0-.75,0,2.59,2.59,0,0,0-1.68.43h0a3.67,3.67,0,0,0-.62,1,15.29,15.29,0,0,0-.71,2c-.3,1-.55,2.08-.79,3.12l-.36,1.52-.78-.53a3.47,3.47,0,0,0-1.22-.6,5.08,5.08,0,0,0-2.42,1,9.61,9.61,0,0,0-1.53,1.25A10,10,0,0,0,68.88,19a14.19,14.19,0,0,0-1.57,3.14A9,9,0,0,0,66.75,25a3.42,3.42,0,0,0,.63,2.12,1.75,1.75,0,0,0,1.45.73,5.55,5.55,0,0,0,2.43-1.05,21.17,21.17,0,0,0,3.56-3.05l1-1,.16,1.39.18,1.49c0,.23.06.48.11.71v0a4.57,4.57,0,0,0,.33.94.55.55,0,0,0,.56.42,2.94,2.94,0,0,0,.89-.18A7.7,7.7,0,0,0,79.23,27c.35-.19.68-.39,1-.61ZM72.59,16.23a1,1,0,0,1,.77-.39c.63,0,1,.55,1.14,1.08A7.19,7.19,0,0,1,75,19.55a5.67,5.67,0,0,1-.1,1l1-.89v2.51l-.16.19A9.46,9.46,0,0,1,74,24a3.36,3.36,0,0,1-1.75.73,1.58,1.58,0,0,1-.82-.22,2.39,2.39,0,0,1-.86-2.14,9.72,9.72,0,0,1,.29-2.22,15,15,0,0,1,.74-2.27,6.52,6.52,0,0,1,1-1.69Z" transform="translate(-0.98 -1.61)"/><path class="cls-1" d="M63.05,10.54h0a1.15,1.15,0,0,0,.74-.39,3.31,3.31,0,0,0,.78-1.23,4.85,4.85,0,0,0,.3-1.69,1.34,1.34,0,0,0-.15-.71.88.88,0,0,0-.57-.15,1.19,1.19,0,0,0-.42.06,1.13,1.13,0,0,0-.3.24h0A3.73,3.73,0,0,0,62.7,8a4.59,4.59,0,0,0-.35,1.59c0,.56.1.93.7,1Z" transform="translate(-0.98 -1.61)"/><path class="cls-1" d="M60.67,25.11h0a1,1,0,0,0,.51-.12,2.6,2.6,0,0,0,.66-1.1,39.58,39.58,0,0,0,1.43-5,19.67,19.67,0,0,0,.51-4.11,2.94,2.94,0,0,0-.4-1.62.88.88,0,0,0-.78-.47.83.83,0,0,0-.71.31h0A12.18,12.18,0,0,0,60,17.07a18.38,18.38,0,0,0-.85,5.15,5.12,5.12,0,0,0,.18,1.51,2.78,2.78,0,0,0,.61,1,1.18,1.18,0,0,0,.72.38Z" transform="translate(-0.98 -1.61)"/><path class="cls-1" d="M46.41,28.19c.26-.31.51-.63.75-1C48,26.09,49,25,49.9,23.9h0l.72-.76c.33-.35.65-.71,1-1.07.16-.17.31-.35.46-.52.4-.3.89,0,.79.79l-.05.32a12.85,12.85,0,0,0-.16,1.86,6,6,0,0,0,.32,2,3,3,0,0,0,.84,1.27,1.58,1.58,0,0,0,1.05.4,3.06,3.06,0,0,0,1-.24,3.9,3.9,0,0,0,.92-.5c0-.13-.07-.3-.1-.42a6.89,6.89,0,0,1-.32-1.16h0a16.3,16.3,0,0,1-.15-2.42,26,26,0,0,1,.18-2.79,13.65,13.65,0,0,0,.12-1.57,3,3,0,0,0-.28-1.49,1.2,1.2,0,0,0-.92-.28,1.9,1.9,0,0,0-.93.24,5.44,5.44,0,0,0-1.23.91c-.71.65-1.38,1.39-2,2.1L49.77,22.1c-.41.43-1,.16-.79-.85l.08-.34c.17-.75.33-1.51.45-2.27A11.23,11.23,0,0,0,49.66,17c0-.33,0-.92-.33-1.14a.84.84,0,0,0-.51-.14,1.5,1.5,0,0,0-1.1.45,7.31,7.31,0,0,0-1.46,2.52h0c-.29.72-.55,1.44-.78,2.18s-.43,1.48-.61,2.24-.31,1.35-.42,2a9.92,9.92,0,0,0-.15,1.54,2,2,0,0,0,.42,1.35,1.21,1.21,0,0,0,1,.45,1,1,0,0,0,.71-.31Z" transform="translate(-0.98 -1.61)"/><path class="cls-1" d="M37.11,14.94a5.51,5.51,0,0,1,1.62,2,6,6,0,0,1,.57,2.57,5,5,0,0,1-.94,3,3,3,0,0,1-2.44,1.39,3,3,0,0,1-2.42-1.21,4.71,4.71,0,0,1-.87-2.91,9,9,0,0,1,.47-2.91,8.58,8.58,0,0,1,1.32-2.48,6.93,6.93,0,0,1,2-1.77,5.75,5.75,0,0,1,1.28-.55,7.43,7.43,0,0,0-3.07.72,10.34,10.34,0,0,0-2.89,2,10,10,0,0,0-2.08,2.83,6.82,6.82,0,0,0-.75,3,3.82,3.82,0,0,0,.95,2.79,5.56,5.56,0,0,0,2.08,1.2,8.17,8.17,0,0,0,2.73.48,7.4,7.4,0,0,0,3-.68,9,9,0,0,0,2.7-1.77,6.11,6.11,0,0,0,1.35-2.17,7.65,7.65,0,0,0,.53-2.76A5.42,5.42,0,0,0,42,16.2,4,4,0,0,0,41.38,15a2.65,2.65,0,0,0-.82-.78,1.7,1.7,0,0,0-.89-.25,3.51,3.51,0,0,0-1.14.27,5.54,5.54,0,0,0-1.33.67Z" transform="translate(-0.98 -1.61)"/><path class="cls-1" d="M19.07,26.35h0v-.05a5.4,5.4,0,0,1-.3-1.92,8,8,0,0,1,.38-2.27,17.78,17.78,0,0,1,.94-2.52A11,11,0,0,1,20.94,18a1.5,1.5,0,0,1,1.12-.79,1,1,0,0,1,.35.07c.54.23.63.86.63,1.38a10.54,10.54,0,0,1-.19,1.94,9.63,9.63,0,0,1-.55,1.88A7.56,7.56,0,0,1,21,24.77c-.09.12-.2.24-.3.35a4.2,4.2,0,0,0,.77-.36,9,9,0,0,0,1.77-1.42,8.14,8.14,0,0,0,1.67-2.24A4.94,4.94,0,0,0,25.48,19a2.78,2.78,0,0,0-.6-1.91,2.07,2.07,0,0,0-1.62-.63,6.43,6.43,0,0,0-3.52,1.23,9.46,9.46,0,0,0-2.59,2.61A12.7,12.7,0,0,0,15.7,23.2a8.48,8.48,0,0,0-.53,2.72A3,3,0,0,0,16,28.18a3.34,3.34,0,0,0,2.4.84,5.06,5.06,0,0,0,1.44-.25,10.74,10.74,0,0,0,1.72-.71,16.39,16.39,0,0,0,1.82-1.15,14,14,0,0,0,1.66-1.42.92.92,0,0,0,.13-.14.77.77,0,0,0-.39-.11,5.22,5.22,0,0,0-1,.6,6,6,0,0,1-3.17,1.39,1.67,1.67,0,0,1-1.59-.88Z" transform="translate(-0.98 -1.61)"/><path class="cls-1" d="M2.34,24.86,2.8,25a30.9,30.9,0,0,0,3.33.13c.68,0,1.36,0,2-.05a12.29,12.29,0,0,0,1.36-.15,2.88,2.88,0,0,0,1.38-.58A8.88,8.88,0,0,0,12.3,22.7a4.54,4.54,0,0,0,.54-1.08c-.15,0-.33.05-.46.07l-1.23.23a35.08,35.08,0,0,1-3.94.62l-1,.08.28-.92c.27-.91.54-1.82.83-2.73.19-.6.38-1.2.59-1.79.66-1.8,1.36-3.59,2.09-5.35l.57-1.39c.66-1.6,1.31-3.23,1.84-4.88.16-.52.33-1,.45-1.59A4.27,4.27,0,0,0,13,3.1c0-.16,0-.4-.17-.49a3.19,3.19,0,0,0-1.31-.2,9.86,9.86,0,0,0-2.09.19,4.06,4.06,0,0,0-1.35.49,2.18,2.18,0,0,0-.73.81v0h0a10.38,10.38,0,0,0-.63,1.3c-.29.71-.55,1.43-.8,2.15-.76,2.22-1.42,4.5-2.06,6.76-.57,2.07-1.12,4.16-1.57,6.26-.15.69-.29,1.39-.4,2.1a7.46,7.46,0,0,0-.13,1.24,1.07,1.07,0,0,0,.56,1.12Z" transform="translate(-0.98 -1.61)"/></g></svg>