<?xml version="1.0" encoding="UTF-8"?>
<!DOCTYPE svg PUBLIC "-//W3C//DTD SVG 1.1//EN" "http://www.w3.org/Graphics/SVG/1.1/DTD/svg11.dtd">
<!-- Creator: CorelDRAW 2018 (64-Bit) -->
<svg xmlns="http://www.w3.org/2000/svg" xml:space="preserve" width="210mm" height="297mm" version="1.1" style="shape-rendering:geometricPrecision; text-rendering:geometricPrecision; image-rendering:optimizeQuality; fill-rule:evenodd; clip-rule:evenodd"
viewBox="0 0 21000 29700"
 xmlns:xlink="http://www.w3.org/1999/xlink">
 <defs>
  <style type="text/css">
   <![CDATA[
    .str0 {stroke:#FEFEFE;stroke-width:10;stroke-miterlimit:22.9256}
    .fil0 {fill:#FEFEFE;fill-rule:nonzero}
   ]]>
  </style>
 </defs>
 <g id="Слой_x0020_1">
  <metadata id="CorelCorpID_0Corel-Layer"/>
  <path class="fil0 str0" d="M14465.77 13115.94c-39.92,0 -59.76,-6.83 -59.76,-20.35 0,-4.21 2.26,-10.57 6.53,-19.33 4.51,-8.63 9.25,-15.56 13.99,-20.9 13.3,-15.35 25.48,-25.35 36.54,-30.02 12.84,-5.68 32,-10.79 57.48,-15.22 25.5,-4.44 48.04,-6.71 67.41,-6.71 27.52,0 41.28,7.95 41.28,23.98 0,15.12 -8.57,33.53 -25.94,55.24 -4.49,6.26 -9.7,10.8 -15.55,13.87 -6.1,2.95 -15.8,5.8 -29.54,8.41 -37.66,7.38 -68.54,11.03 -92.44,11.03z"/>
  <path class="fil0" d="M14880.94 13077.73l-5.53 1.69c-13.83,3.84 -23.81,5.82 -30.03,5.82 -7.51,0 -11.25,-1.98 -11.25,-5.82 0,-1.3 1.57,-4.95 4.64,-10.68 10.76,-16.5 16.09,-31.9 16.09,-46.43 0,-8.29 -1.48,-15.89 -4.35,-22.81 -2.86,-6.82 -6.02,-10.27 -9.57,-10.27 -3.07,0 -7.8,3.26 -14.13,9.87 -17.98,19.46 -32.2,39.42 -42.67,59.87 -10.57,20.45 -15.8,38.71 -15.8,54.71 0,10.57 2.17,19.37 6.52,26.38 4.34,6.92 9.77,10.37 16.39,10.37 5.54,0 16.01,-5.92 31.32,-17.88 15.4,-11.95 32.58,-27.75 51.75,-47.31l7.81 -6.32 -1.19 -1.19zm-17.19 66.18l0 1.19 -1.18 -1.19c-17.97,21.04 -34.38,38.33 -49.4,51.66 -14.91,13.44 -28.74,23.51 -41.38,30.22 -12.65,6.63 -24.2,9.99 -34.87,9.99 -21.63,0 -39.4,-7.21 -53.54,-21.74 -14.12,-14.42 -21.14,-32.69 -21.14,-54.92 0,-13.63 3.46,-29.82 10.38,-48.6 7.02,-18.66 16.5,-36.94 28.64,-54.92 20.26,-29.23 45.74,-54.12 76.46,-74.57 31.61,-21.05 62.03,-31.51 91.37,-31.51 24.7,0 44.94,5.03 60.85,15.11 15.9,10.18 23.91,22.91 23.91,38.33 0,11.36 -3.96,23.31 -11.86,36.05 10.37,0 16.98,1.08 19.65,3.36 2.67,2.17 4.06,7.31 4.06,15.5 0,-0.78 -0.51,3.17 -1.39,11.86 -1.09,19.06 -1.58,36.94 -1.58,53.54 0,8.69 0.1,15.31 0.29,19.75 0.2,4.44 0.6,9.59 1.19,15.31 0.5,5.84 1.09,10.48 1.68,13.93 1.58,9.09 4.05,18.08 7.51,26.97 -11.56,11.36 -22.63,19.75 -33.29,24.99 -10.57,5.34 -21.43,8 -32.4,8 -29.73,0 -44.55,-24.89 -44.55,-74.67 0,-5.74 0.2,-10.28 0.59,-13.64z"/>
  <path class="fil0" d="M15092.32 13138.58c8.89,-6.03 15.71,-12.05 20.25,-17.98 10.28,-12.64 18.18,-27.06 23.81,-43.36 4.35,-10.67 7.9,-22.52 10.37,-35.76 2.47,-13.14 3.76,-25.49 3.76,-36.84 0,-10.67 -2.18,-16 -6.62,-16 -6.23,0 -15.61,13.63 -28.35,40.99 -7.51,16.49 -13.63,32.9 -18.37,49.19 -4.75,16.39 -7.11,30.52 -7.11,42.28 0,4.14 0.79,9.87 2.26,17.48zm0.6 9.28c2.17,11.56 9.68,17.39 22.62,17.39 14.42,0 33.19,-8.49 56.4,-25.48 13.43,-9.88 22.51,-14.82 27.16,-14.82 5.73,0 11.16,1.58 16.2,4.64 5.03,3.07 7.51,6.22 7.51,9.58 0,3.46 -2.77,8 -8.39,13.63 -10.18,10.18 -22.04,20.15 -35.27,29.93 -13.33,9.78 -26.17,17.88 -38.52,24.3 -12.35,6.52 -24.69,11.65 -37.05,15.42 -12.34,3.74 -23.31,5.62 -32.98,5.62 -24.11,0 -43.37,-6.92 -57.79,-20.74 -14.52,-13.83 -21.74,-32.21 -21.74,-55.22 0,-17.58 3.86,-37.44 11.46,-59.57 7.61,-22.11 17.88,-42.86 30.82,-62.23 15.21,-22.61 33.98,-41.38 56.11,-56.49 27.46,-18.18 53.63,-27.27 78.73,-27.27 18.17,0 32.39,5.74 42.67,17.29 10.37,11.46 15.5,27.26 15.5,47.41 0,15.61 -4.04,32.01 -12.25,48.99 -8.2,17 -20.35,33.39 -36.35,49 -13.13,13.14 -25.97,23.42 -38.62,30.72 -12.64,7.41 -23.71,11.06 -33.18,11.06 -4.25,0 -8.6,-1.08 -13.04,-3.16z"/>
  <path class="fil0 str0" d="M15343.61 13139.87c-1.39,6.84 -1.47,13.03 -2.37,19.95 -0.79,9.48 -1.87,17.18 -3.16,23.2 -1.38,5.94 -3.36,10.87 -6.12,14.82 -2.67,3.95 -6.33,8.2 -10.97,12.65 -14.02,12.94 -28.24,19.36 -42.47,19.36 -11.65,0 -20.15,-4.25 -25.68,-12.74 -5.44,-8.5 -8.2,-22.13 -8.2,-41.09 0,-15.01 1.68,-33.59 5.04,-55.72 3.35,-22.02 7.51,-41.87 12.35,-59.46 1.48,-4.91 2.5,-9.95 4.04,-14.72 0.83,-3.06 1.65,-6.03 2.47,-8.9 6.17,-21.79 11.96,-38.2 17.19,-49.37 6.03,-12.65 13.24,-22.82 21.73,-30.53 7.5,-6.02 16.01,-8.99 25.48,-8.99 13.74,0 22.03,8.3 24.9,24.89 2.66,-2.26 5.33,-5.03 7.8,-8.09 5.53,-6.72 9.88,-11.27 12.94,-13.44 3.16,-2.27 6.71,-3.36 10.77,-3.36 16.49,0 24.79,16.41 24.79,49.2 0,17.88 -1.97,35.26 -5.83,52.05 -3.85,16.79 -8.69,30.52 -14.51,41.09 -5.94,10.57 -11.76,15.9 -17.49,15.9 -6.42,0 -9.58,-12.04 -9.58,-36.14 0,-12.76 -0.69,-22.73 -2.18,-29.94 -1.38,-7.21 -3.65,-12.84 -6.71,-16.89 -5.83,10.76 -9.58,35.46 -11.36,74.08 -1.39,22.33 -2.27,36.45 -2.87,42.19z"/>
  <path class="fil0 str0" d="M15630.66 12937.08c28.75,0 43.17,3.35 43.17,10.07 0,7.71 -6.53,11.85 -19.46,12.44 -15.62,0.99 -30.23,5.44 -43.76,13.34 -13.54,7.9 -25.49,18.77 -36.05,32.49 -10.58,13.74 -18.78,29.14 -24.7,46.43 -5.82,17.19 -8.79,35.37 -8.79,54.53 0,21.04 4.93,38.03 14.82,50.86 9.87,12.85 22.72,19.27 38.51,19.27 14.73,0 27.57,-7.5 38.63,-22.62 10.96,-15.11 16.49,-32.69 16.49,-52.85 0,-16.5 -3.45,-31.9 -10.26,-46.32 -6.82,-14.42 -16.8,-26.58 -29.94,-36.45 -5.62,-4.45 -8.39,-7.61 -8.39,-9.58 0,-2.67 3.95,-6.92 11.85,-12.45 8.89,-6.03 18.76,-11.06 29.83,-15.12 10.97,-4.04 20.25,-6.12 27.76,-6.12 8.69,0 16.89,2.27 24.69,6.82 7.8,4.54 14.72,11.06 20.75,19.46 5.92,8.39 10.47,18.08 13.73,29.03 3.16,10.87 4.74,22.53 4.74,34.98 0,20.44 -3.86,40.79 -11.56,60.74 -7.7,20.06 -17.88,36.25 -30.42,48.6 -16.21,15.71 -35.76,28.55 -58.58,38.52 -22.81,9.98 -44.65,14.92 -65.29,14.92 -20.05,0 -39.91,-3.46 -59.76,-10.47 -19.76,-6.92 -35.36,-16.1 -47.02,-27.46 -15.4,-15.51 -23.12,-37.43 -23.12,-65.79 0,-22.42 5.54,-44.84 16.51,-67.26 10.96,-22.43 25.87,-42.77 44.74,-61.04 18.77,-18.28 39.51,-32.61 62.23,-43.17 22.62,-10.58 45.54,-15.8 68.65,-15.8z"/>
  <path class="fil0 str0" d="M14330.85 12794.58l8.09 -15.49c8.44,-17.56 15.33,-29.08 20.83,-34.77 5.51,-5.68 13.07,-8.6 22.54,-8.6 27.54,0 41.31,31.15 41.31,93.28 0,18.06 -1.38,33.73 -3.96,46.81 -2.76,13.26 -7.22,25.81 -13.6,37.85 -7.75,16.19 -18.24,34.61 -31.32,55.25 -13.08,20.65 -28.05,42.52 -44.58,65.57 -16.69,22.89 -34.42,46.12 -53.18,69.19 -33.56,42.69 -61.95,74 -85.18,93.8 -23.24,19.79 -42.68,29.77 -58.52,29.77 -29.09,0 -49.9,-17.73 -62.47,-53.35 -8.61,-22.55 -16.69,-49.75 -23.92,-81.58 -7.23,-31.84 -12.74,-64.2 -16.86,-96.89 -3.97,-32.71 -6.02,-64.36 -6.02,-94.83 0,-42.33 3.77,-77.95 11.35,-107.05 7.57,-28.91 17.9,-48.02 30.98,-57.13 11.71,-6.71 24.1,-9.98 37.17,-9.98 15.49,0 29.94,2.4 43.54,7.22 13.6,4.99 24.27,12.05 32.02,21.34 7.04,7.07 12.39,16.36 15.82,27.88 3.61,11.71 5.86,29.26 7.06,52.83 1.21,23.58 1.73,56.28 1.73,97.76l0 25.65 0 48.19 0 56.79 2.05 0c6.37,-14.46 11.55,-25.48 15.67,-33.22 10.67,-21.18 31.5,-65.91 62.47,-134.06 6.37,-14.3 18.59,-41.31 36.31,-80.54l10.67 -21.69z"/>
  <path class="fil0 str0" d="M13804 12591.74c50.09,0 75.21,5.84 75.21,17.55 0,13.43 -11.37,20.64 -33.91,21.68 -27.19,1.72 -52.66,9.47 -76.24,23.23 -23.58,13.77 -44.4,32.7 -62.82,56.62 -18.42,23.93 -32.69,50.77 -43.02,80.89 -10.15,29.94 -15.32,61.61 -15.32,94.99 0,36.67 8.61,66.27 25.82,88.64 17.21,22.38 39.58,33.56 67.12,33.56 25.64,0 48.01,-13.08 67.29,-39.4 19.1,-26.34 28.73,-56.97 28.73,-92.08 0,-28.75 -6.01,-55.6 -17.89,-80.72 -11.87,-25.12 -29.25,-46.3 -52.15,-63.5 -9.8,-7.75 -14.62,-13.26 -14.62,-16.7 0,-4.64 6.88,-12.05 20.64,-21.69 15.5,-10.5 32.71,-19.26 51.99,-26.32 19.09,-7.06 35.27,-10.67 48.36,-10.67 15.14,0 29.42,3.96 43.02,11.87 13.59,7.91 25.64,19.27 36.13,33.91 10.34,14.61 18.25,31.49 23.94,50.58 5.49,18.94 8.25,39.25 8.25,60.93 0,35.63 -6.71,71.09 -20.14,105.85 -13.42,34.94 -31.14,63.16 -53,84.68 -28.23,27.36 -62.31,49.73 -102.06,67.1 -39.75,17.38 -77.79,26 -113.76,26 -34.93,0 -69.52,-6.03 -104.11,-18.25 -34.43,-12.05 -61.62,-28.05 -81.93,-47.84 -26.84,-27.01 -40.27,-65.23 -40.27,-114.62 0,-39.06 9.64,-78.13 28.75,-117.19 19.1,-39.08 45.09,-74.53 77.95,-106.36 32.71,-31.85 68.85,-56.8 108.43,-75.22 39.4,-18.41 79.34,-27.52 119.61,-27.52z"/>
  <path class="fil0 str0" d="M13268.58 12756.8l4.99 -20.64c10.5,-45.96 19.79,-83.31 28.23,-111.7 8.43,-28.4 17.04,-52.49 25.98,-72.12 8.95,-19.79 17.74,-33.9 26.51,-42.68 14.12,-15.14 39.42,-22.71 76.08,-22.71 16.17,0 28.05,0.85 35.95,2.57 7.92,1.55 14.29,4.65 18.93,8.95 -16.17,50.09 -27.35,87.77 -33.55,112.73 -6.19,25.12 -13.08,59.37 -20.49,103.09 -11.52,71.42 -17.2,135.78 -17.2,193.27 0,37.87 3.1,77.27 9.46,118.23 6.19,40.79 16.53,86.23 30.8,136.3 -17.88,12.57 -34.92,23.07 -51.28,31.84 -16.17,8.78 -31.66,15.67 -46.29,20.66 -14.63,4.99 -27.54,7.57 -38.73,7.57 -19.43,0 -33.2,-9.64 -41.3,-28.74 -6.71,-15.83 -11.18,-28.4 -13.08,-38.03 -2.05,-9.48 -5.68,-36.15 -10.67,-79.86 -45.08,47.15 -88.11,84.15 -129.41,111.18 -41.13,27.02 -74.01,40.61 -98.45,40.61 -28.22,0 -51.45,-11.52 -69.35,-34.59 -18.08,-22.89 -27.02,-52.66 -27.02,-88.98 0,-32.53 7.05,-68.83 20.99,-108.59 13.94,-39.93 33.22,-78.49 57.65,-115.83 16.18,-24.44 32.71,-45.26 49.75,-62.12 16.86,-17.04 36.14,-32.71 57.65,-47.15 39.07,-25.65 71.59,-38.39 97.92,-38.39 12.74,0 31.32,8.43 55.93,25.13zm-15.66 239.22l0 -28.91c-17.21,15.14 -29.94,22.72 -38.38,22.72 -4.65,0 -7.05,-2.41 -7.05,-7.07 0,-2.05 1.02,-6.19 2.93,-12.56 7.05,-20.3 10.49,-39.75 10.49,-58.68 0,-27.2 -5.85,-55.6 -17.55,-84.85 -4.99,-15.15 -11.19,-22.71 -18.59,-22.71 -3.78,0 -6.7,1.72 -9.12,4.98 -11.01,12.91 -21.52,30.98 -31.67,54.39 -9.98,23.23 -18.24,48.7 -24.78,76.07 -6.53,27.54 -9.81,51.8 -9.81,72.96 0,40.11 12.05,60.07 36.32,60.07 12.05,0 28.22,-7.23 48.53,-21.51 20.3,-14.29 39.92,-32.7 58.68,-54.9z"/>
  <path class="fil0 str0" d="M12820.67 12616.73c-31.49,-1.03 -47.33,-19.97 -47.33,-56.97 0,-18.42 4.65,-39.92 13.77,-64.36 9.29,-24.27 19.79,-42.35 31.51,-54.04 6,-6.54 12.2,-11.01 18.4,-13.77 6.2,-2.58 14.12,-3.96 23.92,-3.96 16.7,0 29.1,4.13 36.83,12.39 7.92,8.27 11.87,21.87 11.87,40.96 0,23.92 -4.12,46.64 -12.39,67.98 -8.08,21.35 -19.1,38.56 -32.86,51.8 -13.77,13.26 -27.89,19.97 -42.17,19.97l-1.55 0z"/>
  <path class="fil0 str0" d="M12736.22 13130.74c-15.14,-1.03 -28.91,-7.92 -41.31,-20.65 -12.39,-13.43 -21.17,-28.06 -26.5,-43.71 -5.16,-15.66 -7.74,-35.8 -7.74,-60.75 0,-55.42 10.33,-118.07 30.98,-187.95 20.64,-69.69 44.05,-120.3 70.21,-151.61 10.33,-13.08 24.79,-19.62 43.2,-19.62 19.45,0 35.11,8.94 46.99,26.68 11.87,17.89 17.89,41.13 17.89,70.04 0,42.69 -6.2,92.76 -18.41,150.07 -12.23,57.48 -29.26,117.03 -51.47,178.99 -8.6,24.78 -19.44,41.64 -32.17,50.41 -8.61,5.35 -18.94,8.1 -30.64,8.1l-1.03 0z"/>
  <path class="fil0 str0" d="M12351.92 12966.88l30.29 -35.45c30.46,-34.07 54.73,-59.37 72.8,-76.07 17.9,-16.52 34.07,-28.39 48.54,-35.79 14.28,-7.41 28.73,-11.01 43.54,-11.01 23.92,0 40.78,6.36 50.58,19.1 9.83,12.91 14.64,34.94 14.64,66.59 0,13.09 -1.38,32.36 -4.14,58.01 -4.13,33.9 -6.19,65.91 -6.19,95.86 0,33.55 1.72,60.75 4.99,81.57 2.41,12.74 5.86,25.65 10.67,38.38 3.27,12.05 4.99,20.31 4.99,24.62 0,5.51 -2.07,9.63 -6.02,12.73 -10.49,8.95 -24.27,16.86 -41.3,23.57 -17.21,6.72 -31.68,10.16 -43.37,10.16 -19.29,0 -36.66,-6.54 -52.15,-19.62 -15.66,-13.24 -27.88,-31.33 -36.31,-54.56 -8.61,-23.23 -12.91,-49.39 -12.91,-78.82 0,-19.44 2.07,-42.5 6.02,-69.01l-2.05 -2.07c-14.29,16.19 -26,28.92 -34.95,38.38 -8.94,9.29 -17.21,18.25 -24.96,26.67 -37.68,43.03 -69.52,81.76 -95.69,116.52 -10.14,13.42 -19.26,25.13 -27.69,35.28 -12.58,12.39 -26.69,18.58 -42.35,18.58 -21.51,0 -39.06,-8.08 -52.49,-24.26 -13.42,-16 -20.13,-36.83 -20.13,-62.48 0,-15.83 1.9,-35.09 5.51,-57.99 3.78,-22.89 8.78,-47.33 14.98,-73.32 6.19,-26.15 13.58,-52.83 22.19,-80.54 8.43,-27.52 17.89,-53.69 28.05,-78.64 15.49,-41.31 34.42,-73.5 56.8,-96.73 15.13,-15.14 33.55,-22.71 55.24,-22.71 35.11,0 52.66,22.71 52.66,68.16 0,33.37 -7.22,81.05 -21.69,142.83 0.63,0.69 1.27,1.38 1.9,2.06z"/>
  <path class="fil0 str0" d="M11927.28 12624.56c50.09,0 75.22,5.84 75.22,17.55 0,13.43 -11.36,20.64 -33.9,21.68 -27.2,1.72 -52.67,9.47 -76.25,23.23 -23.58,13.77 -44.39,32.7 -62.81,56.62 -18.42,23.93 -32.7,50.77 -43.03,80.89 -10.15,29.94 -15.32,61.61 -15.32,94.99 0,36.67 8.61,66.26 25.82,88.64 17.21,22.38 39.59,33.56 67.12,33.56 25.65,0 48.01,-13.08 67.29,-39.4 19.1,-26.34 28.74,-56.98 28.74,-92.08 0,-28.75 -6.02,-55.6 -17.89,-80.72 -11.88,-25.12 -29.26,-46.3 -52.15,-63.5 -9.81,-7.75 -14.63,-13.26 -14.63,-16.7 0,-4.64 6.88,-12.05 20.65,-21.69 15.49,-10.5 32.7,-19.26 51.98,-26.32 19.1,-7.06 35.27,-10.67 48.36,-10.67 15.14,0 29.43,3.95 43.03,11.87 13.58,7.91 25.63,19.27 36.13,33.91 10.33,14.62 18.25,31.49 23.93,50.58 5.5,18.94 8.25,39.25 8.25,60.93 0,35.63 -6.7,71.09 -20.13,105.85 -13.43,34.94 -31.15,63.16 -53,84.67 -28.24,27.37 -62.31,49.74 -102.06,67.11 -39.76,17.38 -77.8,26 -113.77,26 -34.92,0 -69.52,-6.03 -104.11,-18.25 -34.42,-12.05 -61.62,-28.05 -81.92,-47.84 -26.85,-27.02 -40.28,-65.23 -40.28,-114.62 0,-39.06 9.64,-78.13 28.75,-117.19 19.1,-39.08 45.09,-74.53 77.96,-106.36 32.7,-31.85 68.84,-56.8 108.42,-75.22 39.41,-18.42 79.34,-27.52 119.6,-27.52z"/>
  <path class="fil0 str0" d="M11286.34 13129.01c3.78,20.14 16.87,30.29 39.4,30.29 25.14,0 57.84,-14.79 98.28,-44.39 23.4,-17.21 39.23,-25.82 47.32,-25.82 9.99,0 19.45,2.76 28.23,8.09 8.78,5.34 13.08,10.84 13.08,16.69 0,6.02 -4.82,13.94 -14.62,23.75 -17.74,17.73 -38.39,35.11 -61.45,52.14 -23.23,17.04 -45.6,31.15 -67.11,42.34 -21.51,11.36 -43.03,20.31 -64.54,26.86 -21.52,6.53 -40.61,9.8 -57.49,9.8 -41.99,0 -75.55,-12.05 -100.67,-36.14 -25.31,-24.1 -37.87,-56.11 -37.87,-96.2 0,-30.64 6.72,-65.24 19.96,-103.79 13.26,-38.54 31.15,-74.68 53.7,-108.42 26.51,-39.41 59.2,-72.1 97.76,-98.44 47.84,-31.67 93.44,-47.5 137.16,-47.5 31.67,0 56.44,9.98 74.35,30.13 18.06,19.96 27.01,47.49 27.01,82.6 0,27.2 -7.05,55.76 -21.34,85.36 -14.28,29.6 -35.46,58.17 -63.33,85.35 -22.88,22.9 -45.26,40.81 -67.29,53.54 -22.03,12.9 -41.31,19.27 -57.82,19.27 -7.41,0 -14.97,-1.89 -22.72,-5.51zm-1.04 -16.18c15.49,-10.49 27.37,-20.98 35.28,-31.32 17.91,-22.02 31.68,-47.15 41.48,-75.55 7.58,-18.59 13.77,-39.24 18.07,-62.3 4.3,-22.89 6.54,-44.4 6.54,-64.19 0,-18.59 -3.78,-27.88 -11.53,-27.88 -10.84,0 -27.18,23.75 -49.4,71.42 -13.07,28.74 -23.74,57.31 -32,85.7 -8.27,28.56 -12.39,53.18 -12.39,73.67 0,7.22 1.38,17.2 3.95,30.45z"/>
  <path class="fil0 str0" d="M10992.45 12598.9l-19.84 49.06c-26.32,62.87 -50.95,125.5 -73.5,187.94 -11.07,30.28 -27.55,82.9 -49.9,158.07 33.83,-2.94 79.34,-10.04 136.34,-21.52 36.76,-7.3 58.89,-11.07 66.83,-11.07 14.19,0 21.29,5.65 21.29,17.12 0,13.58 -7.94,32.38 -23.59,56.81 -15.67,24.22 -33.2,45.1 -52.84,62.85 -13.57,12.53 -33.4,21.29 -59.91,26.3 -26.53,4.81 -67.87,7.31 -124.25,7.31 -52.41,0 -93.12,-1.67 -121.51,-4.8 -0.44,0 -7.31,-2.09 -20.26,-6.27 -23.17,-9.81 -34.88,-30.06 -34.88,-61.17 0,-22.34 6.48,-63.47 19.23,-122.99 12.93,-59.51 31.51,-133.63 55.95,-222.17 55.54,-197.31 97.29,-319.47 125.48,-365.82 8.78,-16.08 20.06,-28.39 33.62,-37.17 13.57,-8.76 32.15,-15.45 55.55,-20.46 22.76,-4.8 48.86,-7.32 78.5,-7.32 27.78,0 47.2,3.56 58.48,10.66 11.27,7.1 16.69,19.41 16.69,36.96 0,16.71 -7.3,48.01 -21.92,93.96 -14.62,45.73 -36.54,103.78 -65.56,173.72z"/>
  <path class="fil0 str0" d="M14606.07 13028.74c-4.55,-1.83 -14.59,-2.21 -18.11,-2.21 -21.07,0 -42.71,2.76 -63.45,6.37 -16.67,2.9 -36.67,6.91 -52.26,13.66 -10.14,4.39 -21.16,15.82 -28.29,23.99 -4.23,4.86 -7.79,10.46 -10.79,16.15 -0.44,0.9 -1,2.06 -1.57,3.29 10.21,2.42 28.05,2.83 34.17,2.83 28.76,0 59.85,-5.13 88.03,-10.61 6.85,-1.33 17.06,-3.34 23.51,-6.35 2.94,-1.62 5.26,-3.99 7.2,-6.71l0.36 -0.49 0.38 -0.48c7.32,-9.15 19.96,-26.67 20.82,-39.44z"/>
  <path class="fil0 str0" d="M15322.44 12974.96c-6.76,6.32 -11.88,14.45 -15.81,22.77 -7.07,14.96 -12.41,33.11 -16.89,49.48 -1.84,6.74 -3.47,13.33 -5.49,20.03 -5.09,18.54 -8.83,37.54 -11.71,56.54 -2.6,17.04 -4.78,34.98 -4.78,52.24 0,6.96 0.56,22.45 4.5,28.55 1.39,2.15 3.86,2.16 6.26,2.16 10.14,0 19.64,-6.64 26.48,-12.94 2.85,-2.73 5.66,-5.78 7.91,-9.05 1.31,-1.9 2.11,-4.54 2.6,-6.76 1.45,-6.47 2.14,-13.49 2.69,-20.08l0.05 -0.53 0.06 -0.52c0.99,-7.62 0.87,-12.88 2.42,-20.47 1.32,-13.16 1.98,-26.7 2.66,-39.89 1.18,-22.64 3.24,-63.81 14.11,-83.89l2.79 -5.15 -5.24 -30.29c-0.21,-1.24 -0.83,-4.15 -1.61,-5.7 -0.18,-0.01 -0.36,-0.01 -0.5,-0.01 -4.06,0 -7.32,1.1 -10.5,3.51z"/>
  <path class="fil0 str0" d="M15366.25 12996.42l10.01 13.22c5.83,7.69 9.1,16.95 10.97,26.33 0.05,0.26 0.1,0.52 0.15,0.77 2.45,-12.92 3.64,-26.04 3.64,-39.21 0,-4.32 -0.43,-16.74 -2.51,-23.63 -1.85,2.02 -3.69,4.3 -4.97,5.87 -3.25,3.96 -6.81,7.74 -10.72,11.06l-6.57 5.59z"/>
  <path class="fil0 str0" d="M15634.96 13009.78c10.43,10.03 18.9,21.74 25.2,35.06 8.38,17.72 12.49,36.58 12.49,56.2 0,24.21 -6.61,46.81 -20.93,66.47 -7.21,9.89 -15.8,18.13 -25.75,23.79 18.46,-8.24 35.67,-19.04 50.18,-33.21 11.39,-11.12 19.32,-25.63 24.99,-40.37 6.48,-16.81 10.02,-34.4 10.02,-52.43 0,-9.6 -1.09,-19.23 -3.8,-28.45 -2.31,-7.86 -5.63,-15.46 -10.39,-22.15 -3.64,-5.11 -8.09,-9.71 -13.55,-12.89 -4.1,-2.39 -8.3,-3.68 -13.05,-3.68 -6.07,0 -14.15,2.63 -19.78,4.71 -5.36,1.96 -10.6,4.25 -15.63,6.95z"/>
  <path class="fil0 str0" d="M15608.43 13198.11c-4.47,0.99 -9.15,1.52 -14.03,1.52 -23.19,0 -42.72,-9.93 -56.84,-28.29 -14.41,-18.73 -19.62,-41.69 -19.62,-64.96 0,-21.13 3.21,-41.97 10.03,-61.99 6.54,-19.18 15.89,-37 28.26,-53.07 4.77,-6.19 9.91,-12.03 15.44,-17.44 -20.77,9.7 -39.35,22.79 -55.79,38.75 -16.38,15.92 -30.02,34.07 -40.07,54.61 -8.77,17.94 -14.15,37.05 -14.15,57.11 0,17.58 3.31,36.5 16.28,49.38 10.41,10.34 24.71,17.25 38.4,22.06 16.84,5.92 34.23,9.16 52.09,9.16 13.6,0 27.07,-2.61 40,-6.84z"/>
  <path class="fil0 str0" d="M14351.47 12805.04l-10.37 21.09c-12.08,26.73 -24.07,53.5 -36.17,80.21 -20.33,44.91 -40.7,90.92 -62.88,134.94l-0.24 0.46c-5.44,10.21 -10.25,21.08 -14.92,31.67 -2.02,4.6 -4.05,8.94 -6.07,13.54 -15.14,28.53 -39.06,29.77 -40.26,0.26l0 -153.75c0,-32.07 -0.06,-64.54 -1.7,-96.58 -0.74,-14.46 -1.88,-33.39 -6.09,-47.3 -2.01,-6.64 -5.12,-13.29 -10.07,-18.26l-0.73 -0.73 -0.67 -0.79c-5.76,-6.92 -13.72,-11.39 -22.09,-14.4 -11.5,-4.14 -23.51,-5.85 -35.7,-5.85 -8.85,0 -16.96,2.13 -24.67,6.36 -10.72,8.26 -17.97,31.45 -21.11,43.47 -8.43,32.29 -10.6,67.96 -10.6,101.21 0,30.74 2.08,61.49 5.85,91.99 3.93,31.78 9.36,63.38 16.46,94.62 6,26.43 13.29,53.09 22.97,78.44l0.11 0.28 0.1 0.28c6.97,19.77 17.67,37.92 40.66,37.92 13.38,0 33.99,-16.13 43.52,-24.25 29.58,-25.2 57.94,-60.24 82.09,-90.6 17.88,-22.47 35.7,-45.06 52.53,-68.34 15.21,-21.03 29.89,-42.47 43.79,-64.39 10.77,-17.01 21.3,-34.69 29.99,-52.86l0.21 -0.42 0.22 -0.42c5.3,-10.01 9.12,-20.52 11.37,-31.62 2.77,-13.66 3.5,-28.31 3.5,-42.22 0,-9.69 -1.08,-70.16 -18.19,-70.16 -1.8,0 -4.56,0.16 -5.92,1.57 -5.66,5.84 -13.08,21.36 -16.61,28.7l-0.17 0.35 -8.14 15.58z"/>
  <path class="fil0 str0" d="M13802.51 12614.86c-37.85,0.24 -74.08,9.38 -108.35,25.36 -38,17.71 -72.02,41.65 -102.09,70.85 -29.97,29.11 -54.92,62.35 -73.29,99.92 -16.45,33.63 -26.4,69.44 -26.4,107.04 0,35.51 7.36,72.31 33.44,98.21 20.05,19.9 46.92,33.16 73.31,42.44 31.17,10.96 63.38,16.93 96.44,16.93 36.11,0 71.6,-9.67 104.5,-24.05 35.07,-15.33 67.71,-35.67 95.17,-62.47 21.67,-21.15 36.77,-48.4 47.58,-76.44 12.04,-31.26 18.59,-64.01 18.59,-97.54 0,-18.37 -2.12,-36.75 -7.31,-54.4 -4.57,-15.54 -11.17,-30.47 -20.59,-43.7 -7.77,-10.92 -17.29,-20.56 -28.93,-27.33 -9.78,-5.7 -20.07,-8.74 -31.39,-8.74 -12.9,0 -28.39,4.84 -40.38,9.25 -16.47,6.06 -32.38,13.7 -46.86,23.67 -0.86,0.59 -2.02,1.4 -3.3,2.33 24.6,18.93 43.93,42.5 57.23,70.62 13.51,28.59 20.1,58.97 20.1,90.61 0,38.6 -10.39,74.43 -33.17,105.7 -21.01,28.83 -49.37,48.9 -85.97,48.9 -35.09,0 -64.1,-14.82 -85.45,-42.58 -22.73,-29.56 -30.61,-66.08 -30.61,-102.74 0,-34.92 5.28,-69.36 16.56,-102.45 10.79,-31.64 26.17,-61.03 46.58,-87.53 19.24,-25 42.17,-46.54 69.49,-62.49 14.37,-8.39 29.43,-14.89 45.1,-19.37z"/>
  <path class="fil0 str0" d="M13427.53 13152.32c-11.08,-40.45 -20.56,-81.62 -26.92,-123.02 -6.18,-40.26 -9.72,-80.99 -9.72,-121.74 0,-65.86 6.83,-132.09 17.51,-197.02 5.76,-35.05 12.32,-70.39 20.86,-104.89 7.79,-31.5 17.6,-63.2 27.57,-94.35 -8.5,-1.21 -18.47,-1.23 -26.46,-1.23 -17,0 -46.57,1.85 -59.17,15.36l-0.27 0.29 -0.28 0.28c-8.92,8.92 -16.66,24.54 -21.82,35.9 -10.05,22.14 -17.94,45.85 -24.86,69.14 -10.75,36.18 -19.45,73.48 -27.86,110.27l-12.89 53.35 -27.62 -18.73c-8.45,-5.73 -32.37,-21.14 -42.95,-21.14 -28.14,0 -62.45,19.52 -85.16,34.55 -19.48,12.89 -37.55,27.7 -54.06,44.21 -17.62,17.63 -33.1,37.67 -46.78,58.48 -22.76,34.62 -41.45,71.63 -55.14,110.76 -11.19,31.97 -19.7,66.91 -19.7,100.96 0,26.61 5.38,53.37 22.11,74.73 13.26,16.94 29.52,25.72 51.14,25.72 26.3,0 64.56,-22.92 85.78,-36.83 45.78,-30.01 87.62,-68.34 125.37,-107.82l34.09 -35.65 5.59 49.01c2,17.45 4.05,34.91 6.38,52.31 1.11,8.23 2.16,17.16 3.92,25.27l0.09 0.44c2.13,10.84 7.37,23.31 11.68,33.46 4.12,9.72 9.26,14.65 20.01,14.65 10.29,0 21.6,-3.04 31.27,-6.33 14.75,-5.03 29.07,-11.73 42.77,-19.13 12.16,-6.55 23.99,-13.67 35.52,-21.26zm-269.9 -357.87c6.65,-8.57 16.14,-13.61 27.14,-13.61 22.18,0 34.03,19.23 40.31,37.88 11.75,29.57 18.95,60.87 18.95,92.8 0,12.05 -1.23,23.96 -3.49,35.68l35.5 -31.24 0 88.52 -5.46 6.47c-18.55,21.95 -39.49,42.32 -63.04,58.88 -17.25,12.13 -40.1,25.72 -61.83,25.72 -10.25,0 -20.17,-2.36 -28.98,-7.72 -25.47,-15.49 -30.46,-48.18 -30.46,-75.47 0,-26.21 4.38,-52.87 10.44,-78.31 6.48,-27.24 14.94,-54.16 26.05,-79.88 8.96,-20.77 20.19,-42.35 34.87,-59.72z"/>
  <path class="fil0 str0" d="M12821.08 12593.61l1.14 0c9.95,0 19.3,-6.93 26.13,-13.51 12.49,-12.02 21.15,-27.33 27.31,-43.41 7.34,-19.16 10.86,-39.19 10.86,-59.71 0,-6.44 -0.71,-19.97 -5.53,-25.06 -4.24,-4.47 -14.42,-5.17 -20.05,-5.17 -4.54,0 -10.47,0.36 -14.78,2.09 -4,1.83 -7.58,4.96 -10.52,8.16l-0.33 0.37 -0.36 0.35c-11.74,11.73 -20.42,30.54 -26.21,45.85 -6.56,17.37 -12.28,37.48 -12.28,56.19 0,19.78 3.35,33.01 24.62,33.85z"/>
  <path class="fil0 str0" d="M12737.11 13107.61l0.14 0c6.23,0 12.55,-1.11 17.96,-4.32 10.8,-7.8 18.84,-26.89 23.07,-38.8 20.43,-57.54 37.91,-116.31 50.63,-176.06 10.03,-47.08 17.91,-97.02 17.91,-145.26 0,-19.44 -3,-40.7 -14.01,-57.21 -6.88,-10.33 -15.13,-16.39 -27.75,-16.39 -10.22,0 -18.61,2.67 -25.05,10.83l-0.2 0.25 -0.21 0.24c-31.06,37.18 -52.22,97.51 -65.78,143.35 -17.2,58.15 -30.03,120.52 -30.03,181.39 0,17.05 1.09,37.12 6.54,53.4 4.44,13.24 11.96,24.9 21.36,35.15 7.04,7.16 15.26,12.54 25.42,13.43z"/>
  <path class="fil0 str0" d="M12234.25 13216.19c9.03,-10.91 17.7,-22.15 26.23,-33.46 30.55,-40.54 63.32,-79.65 96.76,-117.84l0.18 -0.21 0.19 -0.21c8.34,-9.07 16.75,-18.07 25.25,-26.98 11.73,-12.29 23.1,-24.99 34.34,-37.72 5.45,-6.18 10.91,-12.36 16.36,-18.54 13.88,-10.44 31.32,2.03 27.6,27.87l-1.7 11.45c-3.2,21.49 -5.77,43.84 -5.77,65.6 0,24.07 3.18,48.18 11.5,70.86 6.26,17.06 15.51,33.01 29.53,44.86 10.89,9.21 22.92,14.16 37.22,14.16 11.09,0 24.72,-4.56 34.93,-8.56 11.2,-4.39 22.73,-10.11 32.3,-17.64 -0.73,-4.6 -2.44,-10.59 -3.55,-14.63 -4.98,-13.38 -8.72,-27.19 -11.37,-41.22l-0.06 -0.35 -0.06 -0.35c-4.36,-27.73 -5.27,-57.12 -5.27,-85.16 0,-32.88 2.57,-65.86 6.34,-98.52 2.1,-18.09 3.99,-37.12 3.99,-55.35 0,-13.74 -1.07,-41.02 -9.88,-52.54 -6.7,-8.76 -22.22,-10.03 -32.22,-10.03 -11.7,0 -22.58,3.1 -32.96,8.44 -15.6,8.04 -30.6,20.37 -43.44,32.23 -24.86,22.96 -48.52,49.07 -71.07,74.3 -15.67,18.34 -31.33,36.68 -47,55.02 -14.59,14.86 -34.9,5.62 -27.91,-30.15l2.8 -11.97c6.2,-26.51 11.83,-53.34 15.92,-80.27 2.84,-18.73 5.16,-38.32 5.16,-57.29 0,-11.67 -1.38,-32.39 -11.66,-40.34 -4.92,-3.8 -11.86,-4.7 -17.88,-4.7 -15.4,0 -27.99,5.03 -38.59,15.63 -23.55,24.45 -39.98,57.3 -51.8,88.81l-0.11 0.3 -0.12 0.29c-10.25,25.17 -19.36,50.79 -27.38,76.75 -8.06,26.12 -15.46,52.46 -21.79,79.07 -5.63,23.7 -10.76,47.6 -14.65,71.66 -2.86,17.71 -5.21,36.33 -5.21,54.3 0,17.18 3.53,34.21 14.77,47.67 9.23,11.06 20.35,15.95 34.73,15.95 10.14,0 18.2,-4.38 25.35,-11.19z"/>
  <path class="fil0 str0" d="M11905.95 12749.01c24.6,18.94 43.92,42.5 57.22,70.62 13.51,28.59 20.11,58.97 20.11,90.61 0,38.54 -10.36,74.39 -33.17,105.69 -21.02,28.85 -49.37,48.91 -85.98,48.91 -35.09,0 -64.1,-14.82 -85.45,-42.58 -22.73,-29.56 -30.61,-66.07 -30.61,-102.74 0,-34.92 5.28,-69.36 16.56,-102.45 10.78,-31.64 26.18,-61.03 46.59,-87.53 19.24,-25 42.16,-46.54 69.48,-62.49 14.37,-8.39 29.43,-14.89 45.1,-19.37 -37.86,0.24 -74.08,9.38 -108.35,25.36 -37.99,17.71 -72.01,41.65 -102.08,70.85 -29.97,29.11 -54.92,62.35 -73.29,99.92 -16.44,33.63 -26.4,69.45 -26.4,107.04 0,35.52 7.35,72.31 33.44,98.21 20.04,19.9 46.92,33.16 73.3,42.44 31.17,10.96 63.38,16.94 96.44,16.94 36.11,0 71.61,-9.68 104.51,-24.06 35.07,-15.33 67.7,-35.67 95.17,-62.47 21.66,-21.14 36.77,-48.41 47.58,-76.45 12.04,-31.25 18.58,-64 18.58,-97.53 0,-18.37 -2.12,-36.75 -7.31,-54.4 -4.57,-15.54 -11.16,-30.48 -20.58,-43.7 -7.78,-10.92 -17.3,-20.56 -28.94,-27.34 -9.78,-5.69 -20.07,-8.73 -31.39,-8.73 -12.91,0 -28.39,4.84 -40.38,9.25 -16.47,6.05 -32.37,13.7 -46.85,23.67 -0.86,0.59 -2.02,1.4 -3.3,2.33z"/>
  <path class="fil0 str0" d="M11269.6 13151.4l-0.32 0.22 -0.28 -1.45c-8.34,-17.54 -10.77,-48.76 -10.77,-67.79 0,-26.73 5.89,-54.54 13.31,-80.11 8.83,-30.44 19.92,-60.18 33.21,-88.95 8.83,-19.11 18.88,-39.76 30.89,-57.09 9.2,-13.28 21.91,-27.76 39.5,-27.76 4.2,0 8.35,0.82 12.23,2.46 19.15,8.11 22.42,30.23 22.42,48.54 0,22.91 -2.72,45.95 -6.93,68.44 -4.23,22.63 -10.5,44.85 -19.15,66.19 -10.33,29.73 -25.14,57.28 -44.98,81.75 -3.27,4.23 -6.88,8.27 -10.72,12.11 9.78,-3.19 19.4,-8.13 27.24,-12.69 22.9,-13.32 43.88,-31.47 62.68,-50.01 23.32,-23.01 44.45,-49.33 58.74,-78.95 11.34,-23.48 19.05,-49.07 19.05,-75.31 0,-23.95 -4.64,-48.82 -21.1,-67.17 -15.06,-16.79 -35,-22.44 -57.14,-22.44 -45.03,0 -87.49,18.88 -124.28,43.58 -36.53,24.53 -66.93,55.57 -91.44,92.11 -21.49,32.05 -38.49,66.58 -51.03,103.07 -10.46,30.43 -18.71,63.92 -18.71,96.27 0,30.66 8.25,58.02 30.72,79.48 23.24,22.21 53.16,29.74 84.7,29.74 16.97,0 34.6,-3.89 50.76,-8.8 20.95,-6.38 41.16,-15.07 60.53,-25.22 22.4,-11.74 43.79,-25.49 64.15,-40.48 20.67,-15.21 40.64,-31.72 58.8,-49.88 1.09,-1.09 2.97,-3.02 4.68,-5.03 -4.39,-2.45 -9.03,-3.85 -14.07,-4.01 -8.18,2.2 -28.19,16.64 -34.6,21.33 -30.41,22.3 -72.92,48.87 -111.95,48.87 -25.59,0 -45.83,-10.53 -56.14,-31.02z"/>
  <path class="fil0 str0" d="M10679.5 13099.05c5.29,1.72 10.83,3.63 16.19,5.11 38.38,4.12 78.86,4.49 117.39,4.49 23.97,0 48.04,-0.37 71.97,-1.77 15.9,-0.94 32.4,-2.25 48.07,-5.15 16.73,-3.1 35.7,-8.95 48.54,-20.66 18.89,-17.22 35.15,-36.8 48.98,-58.28 5.32,-8.27 15.95,-25.74 19.04,-38.18 -5.15,0.36 -11.56,1.6 -16.12,2.36 -14.53,2.41 -29.03,5.26 -43.47,8.16 -45.4,9.09 -92.72,17.87 -138.88,21.87l-33.84 2.93 9.68 -32.55c9.55,-32.14 19.23,-64.25 29.32,-96.23 6.66,-21.11 13.46,-42.32 21,-63.14 23.06,-63.59 47.79,-126.58 73.8,-188.71l19.92 -49.26c23.33,-56.22 46.39,-113.87 64.89,-171.88 5.89,-18.47 11.57,-37.29 15.97,-56.17 2.14,-9.2 4.86,-21.28 4.86,-30.77 0,-5.65 -0.49,-14 -5.89,-17.4 -10.06,-6.33 -34.7,-7.1 -46.16,-7.1 -24.54,0 -49.66,1.71 -73.69,6.82 -15.66,3.33 -34.23,8.49 -47.8,17.26 -11.18,7.23 -19.54,17.21 -25.88,28.83l-0.26 0.47 -0.29 0.47c-8.61,14.16 -15.77,30.55 -22.14,45.83 -10.37,24.89 -19.59,50.43 -28.34,75.93 -26.9,78.31 -50.18,158.54 -72.49,238.27 -20.42,73 -39.62,146.71 -55.61,220.82 -5.29,24.54 -10.31,49.31 -14.18,74.11 -2.19,14.04 -4.53,29.78 -4.53,44 0,17.08 3.63,32.18 19.95,39.52z"/>
 </g>
</svg>
